<svg width="85" height="29" viewBox="0 0 85 29" fill="none" xmlns="http://www.w3.org/2000/svg">
<g clip-path="url(#clip0_105_7304)">
<path d="M58.2144 22.9785V12.3065H59.4304V16.9305H64.5024V12.3065H65.7024V22.9785H64.5024V18.0665H59.4304V22.9785H58.2144ZM71.0635 23.1545C70.1035 23.1545 69.4102 22.9092 68.9835 22.4185C68.5569 21.9278 68.3435 21.1812 68.3435 20.1785V15.3465H69.5115V20.2425C69.5115 20.9145 69.6555 21.4052 69.9435 21.7145C70.2422 22.0132 70.6795 22.1625 71.2555 22.1625C71.6289 22.1625 71.9969 22.0825 72.3595 21.9225C72.7329 21.7518 73.0369 21.5492 73.2715 21.3145V15.3465H74.4715V22.9785H73.3835L73.3035 22.3865C73.0049 22.6212 72.6849 22.8078 72.3435 22.9465C72.0022 23.0852 71.5755 23.1545 71.0635 23.1545ZM79.5554 23.1545C79.0008 23.1545 78.5048 23.0958 78.0674 22.9785C77.6301 22.8505 77.2621 22.7172 76.9634 22.5785V12.3065H78.1314V15.5865C78.4408 15.4372 78.7394 15.3305 79.0274 15.2665C79.3261 15.2025 79.6141 15.1705 79.8914 15.1705C80.5848 15.1705 81.1928 15.3625 81.7154 15.7465C82.2488 16.1305 82.6221 16.6372 82.8354 17.2665C83.0594 17.8852 83.1714 18.5198 83.1714 19.1705C83.1714 20.0878 82.9688 20.8665 82.5634 21.5065C82.1688 22.1465 81.6941 22.5838 81.1394 22.8185C80.5954 23.0425 80.0674 23.1545 79.5554 23.1545ZM79.3954 22.1785C80.2168 22.1785 80.8621 21.9065 81.3314 21.3625C81.8008 20.8078 82.0354 20.0665 82.0354 19.1385C82.0354 18.4558 81.9074 17.8852 81.6514 17.4265C81.3954 16.9678 81.0861 16.6478 80.7234 16.4665C80.3608 16.2745 80.0141 16.1785 79.6834 16.1785C79.4381 16.1785 79.1821 16.2158 78.9154 16.2905C78.6594 16.3545 78.3981 16.4772 78.1314 16.6585V21.8905C78.3128 21.9758 78.5154 22.0452 78.7394 22.0985C78.9634 22.1518 79.1821 22.1785 79.3954 22.1785Z" fill="#333333"/>
<g clip-path="url(#clip1_105_7304)">
<path d="M24.9074 23.9785V7.30351H29.8574C31.6741 7.30351 33.0158 7.72851 33.8824 8.57851C34.7658 9.42852 35.2074 10.6868 35.2074 12.3535C35.2074 13.9702 34.7408 15.1952 33.8074 16.0285C32.8908 16.8618 31.5491 17.2785 29.7824 17.2785H26.8074V23.9785H24.9074ZM26.8074 15.5285H29.9074C30.8741 15.5285 31.6574 15.2785 32.2574 14.7785C32.8741 14.2785 33.1824 13.4535 33.1824 12.3035C33.1824 11.1535 32.8908 10.3202 32.3074 9.80351C31.7408 9.28685 30.9324 9.02851 29.8824 9.02851H26.8074V15.5285ZM43.4283 24.3035C42.495 24.3035 41.6283 24.1452 40.8283 23.8285C40.0283 23.4952 39.3283 22.9868 38.7283 22.3035C38.145 21.6035 37.6783 20.7118 37.3283 19.6285C36.995 18.5452 36.8283 17.2368 36.8283 15.7035C36.8283 13.5535 37.2033 11.7785 37.9533 10.3785C38.7033 8.97852 39.5783 8.06185 40.5783 7.62851C41.595 7.19518 42.5117 6.97852 43.3283 6.97852C44.4783 6.97852 45.4617 7.22018 46.2783 7.70352C47.095 8.18685 47.8117 8.95351 48.4283 10.0035L47.0283 11.1535C46.595 10.5535 46.22 10.1035 45.9033 9.80351C45.5867 9.50351 45.1867 9.26185 44.7033 9.07852C44.22 8.89518 43.745 8.80351 43.2783 8.80351C41.8783 8.80351 40.7867 9.40351 40.0033 10.6035C39.22 11.8035 38.8283 13.5118 38.8283 15.7285C38.8283 16.8118 38.945 17.7785 39.1783 18.6285C39.4283 19.4618 39.7533 20.1702 40.1533 20.7535C40.57 21.3202 41.0617 21.7535 41.6283 22.0535C42.195 22.3368 42.8033 22.4785 43.4533 22.4785C44.42 22.4785 45.2033 22.3285 45.8033 22.0285C46.4033 21.7285 46.9783 21.3118 47.5283 20.7785L48.2283 22.5785C47.6117 23.1952 46.8283 23.6368 45.8783 23.9035C44.945 24.1702 44.1283 24.3035 43.4283 24.3035Z" fill="#E60000"/>
<path fill-rule="evenodd" clip-rule="evenodd" d="M22.1792 14.5769C22.1792 20.4303 17.4342 25.1753 11.5808 25.1753C5.72744 25.1753 0.982422 20.4303 0.982422 14.5769C0.982422 8.72354 5.72744 3.97852 11.5808 3.97852C17.4342 3.97852 22.1792 8.72354 22.1792 14.5769Z" fill="#D9272A"/>
<path fill-rule="evenodd" clip-rule="evenodd" d="M11.7042 20.5389C8.72851 20.5484 5.63271 18.117 5.61918 14.213C5.61024 11.6313 7.06515 9.14614 8.92504 7.67175C10.739 6.23372 13.2242 5.31091 15.4781 5.30374C15.7682 5.30279 16.0717 5.32598 16.2575 5.38611C14.2867 5.7774 12.7183 7.5332 12.7252 9.52514C12.7255 9.59098 12.7316 9.66135 12.7384 9.69412C16.0361 10.4631 17.5332 12.3679 17.5423 15.0037C17.5515 17.6393 15.3778 20.5273 11.7042 20.5389Z" fill="white"/>
</g>
</g>
<defs>
<clipPath id="clip0_105_7304">
<rect width="84" height="28" fill="white" transform="translate(0.982422 0.978516)"/>
</clipPath>
<clipPath id="clip1_105_7304">
<rect width="52" height="28" fill="white" transform="translate(0.982422 0.978516)"/>
</clipPath>
</defs>
</svg>
